<?xml version="1.0" standalone="no"?>
<!DOCTYPE svg PUBLIC "-//W3C//DTD SVG 20010904//EN"
 "http://www.w3.org/TR/2001/REC-SVG-20010904/DTD/svg10.dtd">
<svg version="1.0" xmlns="http://www.w3.org/2000/svg"
 width="494.000000pt" height="494.000000pt" viewBox="0 0 494.000000 494.000000"
 preserveAspectRatio="xMidYMid meet">

<g transform="translate(0.000000,494.000000) scale(0.100000,-0.100000)"
fill="#000000" stroke="none">
<path d="M1110 3552 l0 -781 106 82 c59 45 115 89 125 97 18 14 19 38 19 443
1 235 3 427 6 427 15 0 322 -229 386 -288 l28 -25 -58 -35 c-44 -27 -148 -92
-170 -108 -9 -6 122 -195 132 -191 7 3 52 28 101 56 112 64 237 113 385 150
460 116 893 30 1360 -269 117 -75 337 -233 437 -315 l32 -26 1 781 c0 429 -2
780 -5 780 -11 0 -629 -466 -893 -673 l-61 -47 -73 20 c-236 65 -555 66 -823
1 l-80 -20 -185 141 c-210 160 -722 546 -751 567 -19 13 -19 -1 -19 -767z
m2640 -12 c0 -159 -2 -290 -4 -290 -2 0 -46 29 -97 64 -118 79 -295 186 -309
186 -7 0 -10 4 -8 9 6 17 395 320 411 321 4 0 7 -130 7 -290z"/>
<path d="M1491 2740 c-333 -46 -601 -281 -836 -732 -41 -80 -75 -147 -75 -150
0 -3 62 -8 138 -12 295 -14 560 -89 819 -234 161 -89 292 -201 787 -671 l236
-223 283 274 c422 411 490 471 648 575 269 176 635 283 967 283 l84 0 -55 104
c-203 383 -407 610 -645 718 -155 70 -364 90 -526 48 -227 -58 -424 -240 -531
-490 -70 -164 -146 -426 -201 -690 -9 -47 -20 -91 -24 -98 -3 -7 -12 18 -19
55 -20 113 -89 380 -132 513 -117 363 -267 563 -503 670 -119 54 -284 78 -415
60z m199 -260 c143 -23 277 -120 361 -261 94 -157 192 -472 264 -839 14 -74
28 -144 32 -155 3 -11 -12 3 -34 32 -21 29 -75 92 -118 139 -306 336 -703 567
-1107 644 -79 15 -115 26 -111 34 15 25 61 85 117 154 115 138 245 221 389
247 91 17 126 17 207 5z m1998 -19 c98 -33 181 -89 277 -185 86 -86 174 -200
163 -211 -2 -3 -58 -14 -123 -25 -128 -22 -310 -78 -427 -133 -264 -122 -566
-377 -796 -672 -16 -20 -21 -23 -17 -10 4 11 20 84 35 161 68 335 146 595 233
774 109 226 285 337 513 325 45 -2 108 -13 142 -24z"/>
</g>
</svg>
